#!OML:ASF X:\für Bonn\!DataBase\2005_08_10_Bjorn_Final\c3d\bjorn.ASF
:FULLY-SPECIFIED
:DEGREES
76
root 1.34791 19.7295 3.27408 -203.387 -48.7291 -158.599
lowerback 28.6366 -1.68562 -5.94599
upperback 18.633 -7.29734 -1.30326
thorax 6.06736 -5.75721 3.31985
lowerneck -6.68457 -7.25146 -5.3703
upperneck 5.62523 -12.0078 21.9206
head 4.53458 -5.59827 6.86161
rclavicle -4.13472e-014 -4.77083e-014
rhumerus -45.2299 -4.30676 -86.3603
rradius 25.2536
rwrist 21.1313
rhand -14.3846 13.6744
rfingers 7.12502
rthumb 11.7583 -15.9755
lclavicle -4.13472e-014 -4.77083e-014
lhumerus 58.4828 -28.2154 75.5109
lradius 97.7681
lwrist -2.02175
lhand -37.9846 -23.0985
lfingers 7.12502
lthumb -11.0244 6.59196
rfemur -83.2052 -9.8225 11.9371
rtibia 125.198
rfoot -12.5516 23.9604
rtoes -27.509
lfemur -4.20029 -15.093 -5.6068
ltibia 15.7701
lfoot 8.18742 -24.4071
ltoes 16.0707
77
root 1.36067 19.7295 3.2723 -204.042 -48.8821 -158
lowerback 29.1586 -1.61192 -5.84482
upperback 18.8654 -7.30709 -1.27016
thorax 6.11669 -5.80332 3.32663
lowerneck -6.5767 -7.26982 -5.15662
upperneck 5.39729 -12.1184 22.3923
head 4.48697 -5.67787 6.97141
rclavicle -1.90833e-014 2.51264e-013
rhumerus -45.3544 -4.30611 -86.2008
rradius 25.267
rwrist 21.1424
rhand -14.2503 13.7409
rfingers 7.12502
rthumb 11.8878 -15.9016
lclavicle -1.90833e-014 2.51264e-013
lhumerus 59.4396 -28.6967 75.8558
lradius 98.1236
lwrist -1.88342
lhand -38.393 -23.0841
lfingers 7.12502
lthumb -11.4183 6.58495
rfemur -84.1889 -10.259 11.9909
rtibia 125.419
rfoot -12.2578 24.6146
rtoes -26.9427
lfemur -4.26566 -15.5864 -5.30783
ltibia 16.127
lfoot 7.93047 -24.2874
ltoes 16.1554
78
root 1.37074 19.7297 3.26938 -204.682 -48.9948 -157.41
lowerback 29.834 -1.5239 -5.70354
upperback 19.207 -7.32056 -1.1573
thorax 5.85474 -5.82643 3.20745
lowerneck -6.46764 -7.27347 -4.64957
upperneck 5.16874 -12.2198 22.7089
head 4.40891 -5.75533 6.98222
rclavicle 3.18055e-015 -1.59028e-014
rhumerus -45.4887 -4.41498 -86.0704
rradius 25.2505
rwrist 21.2373
rhand -14.1667 13.8335
rfingers 7.12502
rthumb 11.9684 -15.8044
lclavicle 3.18055e-015 -1.59028e-014
lhumerus 60.3206 -29.2101 76.1276
lradius 98.4424
lwrist -1.78256
lhand -38.7392 -22.9602
lfingers 7.12502
lthumb -11.7522 6.69009
rfemur -85.0724 -10.6093 12.125
rtibia 125.598
rfoot -12.0041 25.1155
rtoes -26.2983
lfemur -4.33509 -15.9803 -4.99918
ltibia 16.4921
lfoot 7.71512 -24.2278
ltoes 16.272
79
root 1.37733 19.6933 3.25967 -205.24 -49.0993 -156.923
lowerback 30.2837 -1.43876 -5.56306
upperback 19.4041 -7.28744 -1.20242
thorax 5.87312 -5.8323 3.09462
lowerneck -6.28362 -7.27213 -4.08743
upperneck 4.95418 -12.3238 23.0267
head 4.31869 -5.84043 6.98736
rclavicle -4.45278e-014 3.81667e-014
rhumerus -45.6788 -4.54851 -85.9871
rradius 25.2026
rwrist 21.2311
rhand -14.0383 13.9932
rfingers 7.12502
rthumb 12.0922 -15.6374
lclavicle -4.45278e-014 3.81667e-014
lhumerus 61.0201 -29.7898 76.4391
lradius 98.7596
lwrist -1.69399
lhand -39.077 -22.8554
lfingers 7.12502
lthumb -12.0779 6.77606
rfemur -86.181 -11.1708 12.2385
rtibia 125.966
rfoot -11.7165 25.6939
rtoes -25.549
lfemur -4.41234 -16.335 -4.75212
ltibia 16.8947
lfoot 7.45485 -24.1899
ltoes 16.3221
80
root 1.38619 19.6925 3.25685 -205.783 -49.1821 -156.436
lowerback 30.7244 -1.36266 -5.41998
upperback 19.5708 -7.25553 -1.24853
thorax 5.86331 -5.83321 2.98181
lowerneck -6.13164 -7.26544 -3.46887
upperneck 4.8007 -12.4226 23.2572
head 4.24133 -5.91833 6.95449
rclavicle 9.54166e-014 -2.54444e-014
rhumerus -45.8656 -4.77155 -85.8508
rradius 25.0766
rwrist 21.4129
rhand -13.9664 14.2391
rfingers 7.12502
rthumb 12.1615 -15.3874
lclavicle 9.54166e-014 -2.54444e-014
lhumerus 61.6777 -30.3696 76.7295
lradius 99.024
lwrist -1.60937
lhand -39.4117 -22.6152
lfingers 7.12502
lthumb -12.4006 6.99702
rfemur -86.9795 -11.4868 12.4774
rtibia 126.1
rfoot -11.7179 25.9154
rtoes -25.5634
lfemur -4.49997 -16.5637 -4.49533
ltibia 17.2675
lfoot 7.27814 -24.2709
ltoes 16.5058
81
root 1.39519 19.6893 3.25266 -206.29 -49.257 -156.014
lowerback 31.1288 -1.2587 -5.29774
upperback 19.7703 -7.19986 -1.29969
thorax 5.90649 -5.82931 2.86229
lowerneck -6.06549 -7.2649 -2.90424
upperneck 4.65049 -12.5321 23.5291
head 4.18826 -5.99767 6.94003
rclavicle -1.90833e-014 1.30403e-013
rhumerus -45.9775 -4.97263 -85.771
rradius 24.9412
rwrist 21.5146
rhand -13.9209 14.4868
rfingers 7.12502
rthumb 12.2053 -15.1371
lclavicle -1.90833e-014 1.30403e-013
lhumerus 62.382 -30.9599 76.9592
lradius 99.2868
lwrist -1.38088
lhand -39.6815 -22.3811
lfingers 7.12502
lthumb -12.6608 7.21515
rfemur -87.6888 -11.7775 12.725
rtibia 126.218
rfoot -11.6456 26.0973
rtoes -26.0371
lfemur -4.56682 -16.8269 -4.28495
ltibia 17.6645
lfoot 7.07992 -24.2715
ltoes 16.7187
82
root 1.40286 19.6859 3.24826 -206.76 -49.2859 -155.615
lowerback 31.4645 -1.13713 -5.18125
upperback 19.9845 -7.12167 -1.33002
thorax 5.99601 -5.8184 2.75499
lowerneck -5.98259 -7.26033 -2.42152
upperneck 4.46345 -12.6101 23.791
head 4.12085 -6.06579 6.94048
rclavicle 7.95139e-014 4.13472e-014
rhumerus -46.0523 -5.15595 -85.6941
rradius 24.8402
rwrist 21.5989
rhand -13.8189 14.7165
rfingers 7.12502
rthumb 12.3038 -14.9015
lclavicle 7.95139e-014 4.13472e-014
lhumerus 63.0527 -31.5358 77.152
lradius 99.5455
lwrist -1.08449
lhand -39.947 -22.2004
lfingers 7.12502
lthumb -12.9167 7.37988
rfemur -88.3894 -11.9877 13.038
rtibia 126.302
rfoot -11.7127 26.1743
rtoes -26.7896
lfemur -4.49939 -17.0163 -4.06362
ltibia 17.7792
lfoot 7.04224 -24.2623
ltoes 16.9967
83
root 1.41044 19.6821 3.24374 -207.229 -49.3034 -155.206
lowerback 31.8231 -1.0328 -5.03958
upperback 20.1555 -7.04926 -1.35942
thorax 6.02835 -5.80095 2.64297
lowerneck -5.85095 -7.24255 -2.07597
upperneck 4.27811 -12.6666 24.1403
head 4.05741 -6.1286 6.99671
rclavicle -5.725e-014 1.36764e-013
rhumerus -46.181 -5.17562 -85.7285
rradius 24.7709
rwrist 21.5189
rhand -13.7642 14.8828
rfingers 7.12502
rthumb 12.3565 -14.732
lclavicle -5.725e-014 1.36764e-013
lhumerus 63.6307 -32.0876 77.2919
lradius 99.7019
lwrist -0.645017
lhand -40.2626 -22.1457
lfingers 7.12502
lthumb -13.2209 7.41509
rfemur -89.0404 -12.1419 13.4311
rtibia 126.36
rfoot -12.0175 26.0787
rtoes -28.1097
lfemur -4.45779 -17.1559 -3.83004
ltibia 17.9221
lfoot 6.96367 -24.3041
ltoes 17.0534
84
root 1.4171 19.6764 3.23899 -207.622 -49.2955 -154.881
lowerback 32.1266 -0.911253 -4.88476
upperback 20.3491 -6.95282 -1.42799
thorax 6.10062 -5.76951 2.4711
lowerneck -5.75588 -7.22784 -1.6284
upperneck 4.08053 -12.7216 24.4131
head 3.98452 -6.19021 7.01018
rclavicle -1.01778e-013 8.90555e-014
rhumerus -46.2573 -5.27941 -85.8256
rradius 24.7158
rwrist 21.5015
rhand -13.7148 15.0606
rfingers 7.12502
rthumb 12.4041 -14.5514
lclavicle -1.01778e-013 8.90555e-014
lhumerus 64.3374 -32.5954 77.1408
lradius 99.8748
lwrist -0.0900755
lhand -40.6364 -22.1049
lfingers 7.12502
lthumb -13.5812 7.43216
rfemur -89.6605 -12.2394 13.8076
rtibia 126.396
rfoot -12.2035 25.9485
rtoes -28.92
lfemur -4.41844 -17.3116 -3.64308
ltibia 18.0913
lfoot 6.76347 -24.3599
ltoes 16.775
85
root 1.4236 19.6706 3.23406 -208.055 -49.2717 -154.511
lowerback 32.4671 -0.803282 -4.74974
upperback 20.5103 -6.87558 -1.437
thorax 6.13556 -5.75107 2.38095
lowerneck -5.65553 -7.20675 -1.35755
upperneck 3.90729 -12.7467 24.6896
head 3.92473 -6.23478 7.05756
rclavicle -4.45278e-014 -6.36111e-015
rhumerus -46.3219 -5.20743 -85.9209
rradius 24.6684
rwrist 21.444
rhand -13.701 15.1475
rfingers 7.12502
rthumb 12.4174 -14.4636
lclavicle -4.45278e-014 -6.36111e-015
lhumerus 64.9703 -32.998 77.0636
lradius 100.118
lwrist 0.481125
lhand -40.9577 -22.0993
lfingers 7.12502
lthumb -13.8908 7.41679
rfemur -90.2 -12.2602 14.2436
rtibia 126.417
rfoot -12.3615 25.7493
rtoes -29.5655
lfemur -4.38592 -17.4656 -3.4164
ltibia 18.2843
lfoot 6.59966 -24.4173
ltoes 16.6814
86
root 1.42884 19.6645 3.22798 -208.424 -49.2346 -154.203
lowerback 32.7742 -0.700667 -4.63438
upperback 20.6618 -6.804 -1.46659
thorax 6.17364 -5.73364 2.27886
lowerneck -5.56263 -7.16698 -1.09217
upperneck 3.72189 -12.7427 24.9655
head 3.85899 -6.26736 7.10834
rclavicle -2.22639e-014 -1.27222e-014
rhumerus -46.3564 -5.30009 -85.9583
rradius 24.5722
rwrist 21.6305
rhand -13.6976 15.1557
rfingers 7.12502
rthumb 12.4207 -14.4553
lclavicle -2.22639e-014 -1.27222e-014
lhumerus 65.5275 -33.3558 76.9859
lradius 100.503
lwrist 1.04936
lhand -41.1483 -22.0465
lfingers 7.12502
lthumb -14.0745 7.4569
rfemur -90.7184 -12.2538 14.6552
rtibia 126.431
rfoot -12.3222 25.7221
rtoes -29.4878
lfemur -4.35838 -17.6352 -3.22592
ltibia 18.4882
lfoot 6.40828 -24.4305
ltoes 16.6621
87
root 1.43389 19.6565 3.22273 -208.739 -49.206 -153.949
lowerback 33.0784 -0.604247 -4.53177
upperback 20.7851 -6.73498 -1.48929
thorax 6.18467 -5.71464 2.19356
lowerneck -5.43144 -7.14362 -0.956016
upperneck 3.52107 -12.7402 25.27
head 3.7921 -6.30392 7.19184
rclavicle -9.22361e-014 1.7175e-013
rhumerus -46.3457 -5.51138 -85.883
rradius 24.396
rwrist 22.0276
rhand -13.6819 15.2465
rfingers 7.12502
rthumb 12.4358 -14.3636
lclavicle -9.22361e-014 1.7175e-013
lhumerus 66.0427 -33.6505 76.9412
lradius 100.888
lwrist 1.52114
lhand -41.2938 -22.0589
lfingers 7.12502
lthumb -14.2147 7.4347
rfemur -91.2004 -12.227 15.0197
rtibia 126.438
rfoot -12.2431 25.7874
rtoes -29.1514
lfemur -4.3596 -17.7973 -3.07783
ltibia 18.716
lfoot 6.19996 -24.4393
ltoes 16.5411
88
root 1.43843 19.6491 3.21641 -209.04 -49.1767 -153.71
lowerback 33.3939 -0.516955 -4.46985
upperback 20.8774 -6.68096 -1.49219
thorax 6.16525 -5.70476 2.15687
lowerneck -5.32716 -7.10662 -0.854905
upperneck 3.38359 -12.7167 25.5101
head 3.74279 -6.32157 7.26089
rclavicle -7.95139e-014 -9.85972e-014
rhumerus -46.3699 -5.55005 -85.8772
rradius 24.2951
rwrist 22.2859
rhand -13.6777 15.2533
rfingers 7.12502
rthumb 12.4399 -14.3565
lclavicle -7.95139e-014 -9.85972e-014
lhumerus 66.4391 -33.8415 76.9486
lradius 101.361
lwrist 1.92707
lhand -41.3565 -22.1221
lfingers 7.12502
lthumb -14.2752 7.36725
rfemur -91.6244 -12.1826 15.359
rtibia 126.443
rfoot -12.0515 25.9439
rtoes -29.0455
lfemur -4.37505 -18.0162 -2.93719
ltibia 18.9832
lfoot 5.93369 -24.4056
ltoes 16.3669
